<svg width="28" height="28" viewBox="0 0 28 28" fill="none" xmlns="http://www.w3.org/2000/svg">
<g clip-path="url(#clip0_1003_2)">
<mask id="mask0_1003_2" style="mask-type:luminance" maskUnits="userSpaceOnUse" x="1" y="0" width="2" height="25">
<path d="M1.17261 24.78H2.98677V2.91914e-05H1.17261V24.78Z" fill="white"/>
</mask>
<g mask="url(#mask0_1003_2)">
<path d="M1.19189 0.00640614H2.97598V24.7656L1.19189 23.8578V0.00640614Z" fill="#ff0000"/>
</g>
<path d="M18.6666 21.6531C18.6666 21.6148 18.6648 21.5769 18.661 21.5388C18.6573 21.5009 18.6517 21.4632 18.6442 21.4258C18.6367 21.3882 18.6274 21.3512 18.6165 21.3148C18.6054 21.2783 18.5924 21.2424 18.5778 21.207C18.5633 21.1719 18.547 21.1374 18.529 21.1037C18.5109 21.0701 18.4914 21.0373 18.4703 21.0056C18.449 20.9739 18.4264 20.9433 18.4021 20.9137C18.3779 20.8842 18.3523 20.8561 18.3254 20.829C18.2984 20.802 18.2701 20.7765 18.2406 20.7522C18.2111 20.728 18.1804 20.7054 18.1487 20.684C18.117 20.6629 18.0842 20.6434 18.0507 20.6253C18.0169 20.6073 17.9825 20.5911 17.9473 20.5765C17.9119 20.5619 17.876 20.549 17.8396 20.5378C17.8031 20.5269 17.7661 20.5176 17.7285 20.5101C17.6912 20.5027 17.6534 20.497 17.6155 20.4934C17.5776 20.4895 17.5395 20.4877 17.5012 20.4877H10.5092C10.4711 20.4877 10.4331 20.4895 10.395 20.4934C10.357 20.497 10.3193 20.5027 10.2819 20.5101C10.2444 20.5176 10.2074 20.5269 10.1709 20.5378C10.1345 20.549 10.0985 20.5619 10.0632 20.5765C10.028 20.5911 9.99354 20.6073 9.95982 20.6253C9.92628 20.6434 9.89347 20.6629 9.86175 20.684C9.83003 20.7054 9.7994 20.728 9.76987 20.7522C9.74052 20.7765 9.71227 20.802 9.68529 20.829C9.65813 20.8561 9.63261 20.8842 9.60836 20.9137C9.58412 20.9433 9.56151 20.9739 9.54019 21.0056C9.51904 21.0373 9.49953 21.0701 9.48149 21.1037C9.46344 21.1374 9.44722 21.1719 9.43263 21.207C9.41805 21.2424 9.40511 21.2783 9.39399 21.3148C9.38305 21.3512 9.37375 21.3882 9.36628 21.4258C9.35881 21.4632 9.35315 21.5009 9.34951 21.5388C9.34568 21.5769 9.34386 21.6148 9.34386 21.6531V28.0042L6.44214 26.5285V0.00633777H9.34386V6.17618C9.34386 6.21446 9.34568 6.25256 9.34951 6.29048C9.35315 6.3284 9.35881 6.36613 9.36628 6.40368C9.37375 6.44105 9.38305 6.47806 9.39399 6.51451C9.40511 6.55116 9.41805 6.58688 9.43263 6.62225C9.44722 6.65743 9.46344 6.69188 9.48149 6.72561C9.49953 6.75933 9.51904 6.79196 9.54019 6.82368C9.56151 6.8554 9.58412 6.88603 9.60836 6.91556C9.63261 6.94509 9.65813 6.97334 9.68529 7.00032C9.71227 7.0273 9.74052 7.05282 9.76987 7.07707C9.7994 7.10131 9.83003 7.1241 9.86175 7.14524C9.89347 7.16639 9.92628 7.18608 9.95982 7.20394C9.99354 7.22199 10.028 7.23821 10.0632 7.25298C10.0985 7.26756 10.1345 7.28032 10.1709 7.29144C10.2076 7.30256 10.2444 7.31168 10.2819 7.31915C10.3193 7.32662 10.357 7.33228 10.395 7.33592C10.4331 7.33975 10.4711 7.34157 10.5092 7.34157H17.5012C17.5395 7.34157 17.5776 7.33975 17.6155 7.33592C17.6534 7.33228 17.6912 7.32662 17.7285 7.31915C17.7661 7.31186 17.8031 7.30256 17.8396 7.29144C17.876 7.28032 17.9119 7.26756 17.9473 7.25298C17.9825 7.23821 18.0169 7.22199 18.0507 7.20394C18.0842 7.18608 18.117 7.16639 18.1487 7.14524C18.1804 7.1241 18.2111 7.10131 18.2406 7.07707C18.2701 7.05282 18.2984 7.0273 18.3254 7.00032C18.3523 6.97334 18.3779 6.94509 18.4021 6.91556C18.4264 6.88603 18.449 6.8554 18.4703 6.82368C18.4914 6.79196 18.5109 6.75933 18.529 6.72561C18.547 6.69188 18.5633 6.65743 18.5778 6.62225C18.5924 6.58688 18.6054 6.55116 18.6165 6.51451C18.6274 6.47806 18.6367 6.44105 18.6442 6.40368C18.6517 6.36613 18.6573 6.3284 18.661 6.29048C18.6648 6.25256 18.6666 6.21446 18.6666 6.17618V0.00633777H21.5683V26.5285L18.6666 28.0042V21.6531ZM18.6666 10.1057C18.6666 10.0674 18.6648 10.0293 18.661 9.99136C18.6573 9.95345 18.6517 9.91571 18.6442 9.87834C18.6367 9.84079 18.6274 9.80379 18.6165 9.76733C18.6054 9.73087 18.5924 9.69496 18.5778 9.65959C18.5633 9.62441 18.547 9.58996 18.529 9.55623C18.5109 9.52251 18.4914 9.48988 18.4703 9.45816C18.449 9.42644 18.4264 9.39582 18.4021 9.36629C18.3779 9.33675 18.3523 9.3085 18.3254 9.28152C18.2984 9.25454 18.2701 9.22902 18.2406 9.20478C18.2111 9.18053 18.1804 9.15793 18.1487 9.1366C18.117 9.11545 18.0842 9.09576 18.0507 9.0779C18.0169 9.05985 17.9825 9.04363 17.9473 9.02905C17.9119 9.01428 17.876 9.00152 17.8396 8.9904C17.8031 8.97928 17.7661 8.97017 17.7285 8.96269C17.6912 8.95522 17.6534 8.94957 17.6155 8.94592C17.5776 8.94209 17.5395 8.94027 17.5012 8.94027H10.5092C10.4711 8.94027 10.4331 8.94209 10.395 8.94592C10.357 8.94957 10.3193 8.95522 10.2819 8.96269C10.2444 8.97017 10.2074 8.97928 10.1709 8.9904C10.1345 9.00152 10.0985 9.01428 10.0632 9.02905C10.028 9.04363 9.99354 9.05985 9.95982 9.0779C9.92628 9.09576 9.89347 9.11545 9.86175 9.1366C9.83003 9.15793 9.7994 9.18053 9.76987 9.20478C9.74052 9.22902 9.71227 9.25454 9.68529 9.28152C9.65813 9.3085 9.63261 9.33675 9.60836 9.36629C9.58412 9.39582 9.56151 9.42644 9.54019 9.45816C9.51904 9.48988 9.49953 9.52251 9.48149 9.55623C9.46344 9.58996 9.44722 9.62441 9.43263 9.65959C9.41805 9.69496 9.40511 9.73087 9.39399 9.76733C9.38305 9.80379 9.37375 9.84079 9.36628 9.87834C9.35881 9.91571 9.35315 9.95345 9.34951 9.99136C9.34568 10.0293 9.34386 10.0674 9.34386 10.1057V17.7333C9.34386 17.7714 9.34568 17.8095 9.34951 17.8476C9.35315 17.8855 9.35881 17.9232 9.36628 17.9606C9.37375 17.998 9.38305 18.035 9.39399 18.0716C9.40511 18.1081 9.41805 18.144 9.43263 18.1792C9.44722 18.2145 9.46344 18.249 9.48149 18.2825C9.49953 18.3163 9.51904 18.3491 9.54019 18.3808C9.56151 18.4125 9.58412 18.4431 9.60836 18.4725C9.63261 18.502 9.65813 18.5303 9.68529 18.5572C9.71227 18.5842 9.74052 18.6099 9.76987 18.6342C9.7994 18.6582 9.83003 18.681 9.86175 18.7022C9.89347 18.7235 9.92628 18.743 9.95982 18.7611C9.99354 18.7791 10.028 18.7953 10.0632 18.8099C10.0985 18.8245 10.1345 18.8374 10.1709 18.8484C10.2076 18.8595 10.2444 18.8688 10.2819 18.8763C10.3193 18.8837 10.357 18.8892 10.395 18.893C10.4331 18.8967 10.4711 18.8987 10.5092 18.8987H17.5012C17.5395 18.8987 17.5776 18.8967 17.6155 18.893C17.6534 18.8892 17.6912 18.8837 17.7285 18.8763C17.7661 18.8688 17.8031 18.8595 17.8396 18.8484C17.876 18.8374 17.9119 18.8245 17.9473 18.8099C17.9825 18.7953 18.0169 18.7791 18.0507 18.7611C18.0842 18.743 18.117 18.7235 18.1487 18.7022C18.1804 18.681 18.2111 18.6582 18.2406 18.6342C18.2701 18.6099 18.2984 18.5842 18.3254 18.5572C18.3523 18.5303 18.3779 18.502 18.4021 18.4725C18.4264 18.4431 18.449 18.4125 18.4703 18.3808C18.4914 18.3491 18.5109 18.3163 18.529 18.2827C18.547 18.249 18.5633 18.2145 18.5778 18.1792C18.5924 18.144 18.6054 18.1081 18.6165 18.0716C18.6274 18.035 18.6367 17.9982 18.6442 17.9606C18.6517 17.9232 18.6573 17.8855 18.661 17.8476C18.6648 17.8095 18.6666 17.7714 18.6666 17.7333V10.1057Z" fill="#ff0000"/>
<mask id="mask1_1003_2" style="mask-type:luminance" maskUnits="userSpaceOnUse" x="25" y="0" width="2" height="25">
<path d="M25.0134 24.78H26.8276V2.91914e-05H25.0134V24.78Z" fill="white"/>
</mask>
<g mask="url(#mask1_1003_2)">
<path d="M25.0347 24.7656V0.00640614H26.8199V23.8578L25.0347 24.7656Z" fill="#ff0000"/>
</g>
<path d="M4.07764 23.6342H5.34037V21.2221H4.07764V23.6342Z" fill="#ff0000"/>
<path d="M4.07764 18.8098H5.34037V16.3975H4.07764V18.8098Z" fill="#ff0000"/>
<path d="M4.07764 13.9841H5.34037V11.5719H4.07764V13.9841Z" fill="#ff0000"/>
<path d="M4.07764 9.15857H5.34037V6.7463H4.07764V9.15857Z" fill="#ff0000"/>
<path d="M4.07764 4.33398H5.34037V1.92172H4.07764V4.33398Z" fill="#ff0000"/>
<path d="M22.6702 23.6342H23.9329V21.2221H22.6702V23.6342Z" fill="#ff0000"/>
<path d="M22.6702 18.8098H23.9329V16.3975H22.6702V18.8098Z" fill="#ff0000"/>
<path d="M22.6702 13.9841H23.9329V11.5719H22.6702V13.9841Z" fill="#ff0000"/>
<path d="M22.6702 9.15857H23.9329V6.7463H22.6702V9.15857Z" fill="#ff0000"/>
<path d="M22.6702 4.33398H23.9329V1.92172H22.6702V4.33398Z" fill="#ff0000"/>
</g>
<defs>
<clipPath id="clip0_1003_2">
<rect width="28" height="28" fill="white" transform="matrix(1 0 0 -1 0 28)"/>
</clipPath>
</defs>
</svg>
